<svg xmlns="http://www.w3.org/2000/svg" viewBox="0 0 64 64">
  <!-- Fondo -->
  <circle cx="32" cy="32" r="32" fill="#1D429B"/>

  <!-- Globo terráqueo -->
  <circle cx="32" cy="32" r="18" fill="#2563eb" stroke="#60a5fa" stroke-width="1"/>
  <ellipse cx="32" cy="32" rx="8" ry="18" fill="none" stroke="#60a5fa" stroke-width="1"/>
  <line x1="14" y1="32" x2="50" y2="32" stroke="#60a5fa" stroke-width="1"/>
  <line x1="16" y1="24" x2="48" y2="24" stroke="#60a5fa" stroke-width="0.7"/>
  <line x1="16" y1="40" x2="48" y2="40" stroke="#60a5fa" stroke-width="0.7"/>

  <!-- Balón de fútbol encima -->
  <circle cx="32" cy="20" r="9" fill="white" stroke="#1e3a5f" stroke-width="1"/>
  <!-- Parches del balón -->
  <polygon points="32,13 36,16 35,21 29,21 28,16" fill="#1e1b4b"/>
  <polygon points="36,16 40,17 40,22 35,21" fill="#1e1b4b"/>
  <polygon points="28,16 24,17 24,22 29,21" fill="#1e1b4b"/>

  <!-- Estrella/trofeo -->
  <polygon points="32,44 33.5,48.5 38,48.5 34.5,51 36,55.5 32,53 28,55.5 29.5,51 26,48.5 30.5,48.5"
    fill="#fde047" stroke="#f59e0b" stroke-width="0.5"/>
</svg>
